{
  "accessors": [
    {
      "bufferView": 2,
      "componentType": 5126,
      "count": 56,
      "max": [
        0.66736006736755371,
        0.70409166812896729,
        0.5
      ],
      "min": [
        -0.66736006736755371,
        -0.5,
        -1.3669140338897705
      ],
      "type": "VEC3"
    },
    {
      "bufferView": 2,
      "byteOffset": 672,
      "componentType": 5126,
      "count": 56,
      "max": [
        0.94828808307647705,
        0.98974913358688354,
        0.98031365871429443
      ],
      "min": [
        -0.94828814268112183,
        -1,
        -1
      ],
      "type": "VEC3"
    },
    {
      "bufferView": 1,
      "componentType": 5126,
      "count": 56,
      "max": [
        0.99320793151855469,
        0.67893362045288086
      ],
      "min": [
        0.44825610518455505,
        0.074757367372512817
      ],
      "type": "VEC2"
    },
    {
      "bufferView": 0,
      "componentType": 5125,
      "count": 84,
      "max": [
        55
      ],
      "min": [
        0
      ],
      "type": "SCALAR"
    },
    {
      "bufferView": 2,
      "byteOffset": 1344,
      "componentType": 5126,
      "count": 32,
      "max": [
        0.5,
        1.2706265449523926,
        0.5
      ],
      "min": [
        -0.5,
        -0.5,
        -0.8377302885055542
      ],
      "type": "VEC3"
    },
    {
      "bufferView": 2,
      "byteOffset": 1728,
      "componentType": 5126,
      "count": 32,
      "max": [
        0.95638513565063477,
        0.98576390743255615,
        1
      ],
      "min": [
        -0.9677613377571106,
        -1,
        -0.83859932422637939
      ],
      "type": "VEC3"
    },
    {
      "bufferView": 1,
      "byteOffset": 448,
      "componentType": 5126,
      "count": 32,
      "max": [
        0.70707416534423828,
        0.84845626354217529
      ],
      "min": [
        0.30615618824958801,
        0.33812105655670166
      ],
      "type": "VEC2"
    },
    {
      "bufferView": 0,
      "byteOffset": 336,
      "componentType": 5125,
      "count": 60,
      "max": [
        31
      ],
      "min": [
        0
      ],
      "type": "SCALAR"
    },
    {
      "bufferView": 2,
      "byteOffset": 2112,
      "componentType": 5126,
      "count": 32,
      "max": [
        0.5,
        0.5,
        0.5
      ],
      "min": [
        0.041246175765991211,
        -0.5,
        -0.5
      ],
      "type": "VEC3"
    },
    {
      "bufferView": 2,
      "byteOffset": 2496,
      "componentType": 5126,
      "count": 32,
      "max": [
        1,
        0.9545939564704895,
        1
      ],
      "min": [
        -1,
        -1,
        -1
      ],
      "type": "VEC3"
    },
    {
      "bufferView": 1,
      "byteOffset": 704,
      "componentType": 5126,
      "count": 32,
      "max": [
        0.32332524657249451,
        0.95345598459243774
      ],
      "min": [
        0.011153578758239746,
        0.46140813827514648
      ],
      "type": "VEC2"
    },
    {
      "bufferView": 0,
      "byteOffset": 576,
      "componentType": 5125,
      "count": 60,
      "max": [
        31
      ],
      "min": [
        0
      ],
      "type": "SCALAR"
    },
    {
      "bufferView": 2,
      "byteOffset": 2880,
      "componentType": 5126,
      "count": 32,
      "max": [
        2.3077058792114258,
        0.5,
        0.5
      ],
      "min": [
        1.848952054977417,
        -0.5,
        -0.5
      ],
      "type": "VEC3"
    },
    {
      "bufferView": 2,
      "byteOffset": 3264,
      "componentType": 5126,
      "count": 32,
      "max": [
        1,
        0.9545939564704895,
        1
      ],
      "min": [
        -1,
        -1,
        -1
      ],
      "type": "VEC3"
    },
    {
      "bufferView": 1,
      "byteOffset": 960,
      "componentType": 5126,
      "count": 32,
      "max": [
        0.96820300817489624,
        0.97651451826095581
      ],
      "min": [
        0.64829254150390625,
        0.50033527612686157
      ],
      "type": "VEC2"
    },
    {
      "bufferView": 0,
      "byteOffset": 816,
      "componentType": 5125,
      "count": 60,
      "max": [
        31
      ],
      "min": [
        0
      ],
      "type": "SCALAR"
    },
    {
      "bufferView": 2,
      "byteOffset": 3648,
      "componentType": 5126,
      "count": 130,
      "max": [
        0.53258281946182251,
        0.25242340564727783,
        0.81546199321746826
      ],
      "min": [
        -0.53258281946182251,
        -0.71456301212310791,
        -1.0714046955108643
      ],
      "type": "VEC3"
    },
    {
      "bufferView": 2,
      "byteOffset": 5208,
      "componentType": 5126,
      "count": 130,
      "max": [
        0.99944370985031128,
        0.99998193979263306,
        0.64338231086730957
      ],
      "min": [
        -0.99944198131561279,
        -0.98599612712860107,
        -0.99224948883056641
      ],
      "type": "VEC3"
    },
    {
      "bufferView": 1,
      "byteOffset": 1216,
      "componentType": 5126,
      "count": 130,
      "max": [
        0.64121973514556885,
        0.71819376945495605
      ],
      "min": [
        0.14772391319274902,
        0.070764839649200439
      ],
      "type": "VEC2"
    },
    {
      "bufferView": 0,
      "byteOffset": 1056,
      "componentType": 5125,
      "count": 192,
      "max": [
        129
      ],
      "min": [
        0
      ],
      "type": "SCALAR"
    },
    {
      "bufferView": 2,
      "byteOffset": 6768,
      "componentType": 5126,
      "count": 24,
      "max": [
        5.6664958000183105,
        0.5,
        0.5
      ],
      "min": [
        -5.6664958000183105,
        -0.5,
        -0.5
      ],
      "type": "VEC3"
    },
    {
      "bufferView": 2,
      "byteOffset": 7056,
      "componentType": 5126,
      "count": 24,
      "max": [
        0.91569674015045166,
        1,
        1
      ],
      "min": [
        -0.91569674015045166,
        -1,
        -1
      ],
      "type": "VEC3"
    },
    {
      "bufferView": 1,
      "byteOffset": 2256,
      "componentType": 5126,
      "count": 24,
      "max": [
        0.62247014045715332,
        0.45537054538726807
      ],
      "min": [
        0.54253780841827393,
        0.34879368543624878
      ],
      "type": "VEC2"
    },
    {
      "bufferView": 0,
      "byteOffset": 1824,
      "componentType": 5125,
      "count": 36,
      "max": [
        23
      ],
      "min": [
        0
      ],
      "type": "SCALAR"
    },
    {
      "bufferView": 3,
      "componentType": 5126,
      "count": 302,
      "max": [
        10
      ],
      "min": [
        0.041666667908430099
      ],
      "type": "SCALAR"
    },
    {
      "bufferView": 4,
      "componentType": 5126,
      "count": 302,
      "max": [
        0,
        -0,
        0.28401535749435425,
        0.99999892711639404
      ],
      "min": [
        0,
        -0,
        -0.28401535749435425,
        0.95881974697113037
      ],
      "type": "VEC4"
    },
    {
      "bufferView": 3,
      "byteOffset": 1208,
      "componentType": 5126,
      "count": 302,
      "max": [
        10
      ],
      "min": [
        0.041666667908430099
      ],
      "type": "SCALAR"
    },
    {
      "bufferView": 4,
      "byteOffset": 4832,
      "componentType": 5126,
      "count": 302,
      "max": [
        0.28401535749435425,
        -0,
        0,
        0.99999892711639404
      ],
      "min": [
        -0.28401535749435425,
        -0,
        0,
        0.95881974697113037
      ],
      "type": "VEC4"
    },
    {
      "bufferView": 3,
      "byteOffset": 2416,
      "componentType": 5126,
      "count": 302,
      "max": [
        10
      ],
      "min": [
        0.041666667908430099
      ],
      "type": "SCALAR"
    },
    {
      "bufferView": 4,
      "byteOffset": 9664,
      "componentType": 5126,
      "count": 302,
      "max": [
        0.28401535749435425,
        0,
        0,
        0.99999892711639404
      ],
      "min": [
        -0.28401535749435425,
        0,
        0,
        0.95881974697113037
      ],
      "type": "VEC4"
    }
  ],
  "animations": [
    {
      "channels": [
        {
          "sampler": 0,
          "target": {
            "node": 7,
            "path": "rotation"
          }
        },
        {
          "sampler": 1,
          "target": {
            "node": 9,
            "path": "rotation"
          }
        },
        {
          "sampler": 2,
          "target": {
            "node": 11,
            "path": "rotation"
          }
        }
      ],
      "name": "Take 001",
      "samplers": [
        {
          "input": 24,
          "interpolation": "LINEAR",
          "output": 25
        },
        {
          "input": 26,
          "interpolation": "LINEAR",
          "output": 27
        },
        {
          "input": 28,
          "interpolation": "LINEAR",
          "output": 29
        }
      ]
    }
  ],
  "asset": {
    "extras": {
      "author": "SergioCG (https://sketchfab.com/SergioCG)",
      "license": "CC-BY-NC-4.0 (http://creativecommons.org/licenses/by-nc/4.0/)",
      "source": "https://sketchfab.com/3d-models/porygon-6e2319fee37f4b47b80657a4892d6c5e",
      "title": "Porygon"
    },
    "generator": "Sketchfab-9.37.0",
    "version": "2.0"
  },
  "bufferViews": [
    {
      "buffer": 0,
      "byteLength": 1968,
      "byteOffset": 0,
      "name": "floatBufferViews",
      "target": 34963
    },
    {
      "buffer": 0,
      "byteLength": 2448,
      "byteOffset": 1968,
      "byteStride": 8,
      "name": "floatBufferViews",
      "target": 34962
    },
    {
      "buffer": 0,
      "byteLength": 7344,
      "byteOffset": 4416,
      "byteStride": 12,
      "name": "floatBufferViews",
      "target": 34962
    },
    {
      "buffer": 0,
      "byteLength": 3624,
      "byteOffset": 11760,
      "name": "floatBufferViews"
    },
    {
      "buffer": 0,
      "byteLength": 14496,
      "byteOffset": 15384,
      "byteStride": 16,
      "name": "floatBufferViews"
    }
  ],
  "buffers": [
    {
      "byteLength": 29880,
      "uri": "scene.bin"
    }
  ],
  "images": [
    {
      "uri": "textures/Porygon_baseColor.png"
    },
    {
      "uri": "textures/Porygon_metallicRoughness.png"
    }
  ],
  "materials": [
    {
      "doubleSided": true,
      "name": "Porygon",
      "pbrMetallicRoughness": {
        "baseColorFactor": [
          1,
          1,
          1,
          1
        ],
        "baseColorTexture": {
          "index": 0,
          "texCoord": 0
        },
        "metallicFactor": 1,
        "metallicRoughnessTexture": {
          "index": 1,
          "texCoord": 0
        },
        "roughnessFactor": 1
      }
    }
  ],
  "meshes": [
    {
      "name": "pCube1_Porygon_0",
      "primitives": [
        {
          "attributes": {
            "NORMAL": 1,
            "POSITION": 0,
            "TEXCOORD_0": 2
          },
          "indices": 3,
          "material": 0,
          "mode": 4
        }
      ]
    },
    {
      "name": "pCube2_Porygon_0",
      "primitives": [
        {
          "attributes": {
            "NORMAL": 5,
            "POSITION": 4,
            "TEXCOORD_0": 6
          },
          "indices": 7,
          "material": 0,
          "mode": 4
        }
      ]
    },
    {
      "name": "polySurface1_Porygon_0",
      "primitives": [
        {
          "attributes": {
            "NORMAL": 9,
            "POSITION": 8,
            "TEXCOORD_0": 10
          },
          "indices": 11,
          "material": 0,
          "mode": 4
        }
      ]
    },
    {
      "name": "polySurface2_Porygon_0",
      "primitives": [
        {
          "attributes": {
            "NORMAL": 13,
            "POSITION": 12,
            "TEXCOORD_0": 14
          },
          "indices": 15,
          "material": 0,
          "mode": 4
        }
      ]
    },
    {
      "name": "pCube4_Porygon_0",
      "primitives": [
        {
          "attributes": {
            "NORMAL": 17,
            "POSITION": 16,
            "TEXCOORD_0": 18
          },
          "indices": 19,
          "material": 0,
          "mode": 4
        }
      ]
    },
    {
      "name": "pCube5_Porygon_0",
      "primitives": [
        {
          "attributes": {
            "NORMAL": 21,
            "POSITION": 20,
            "TEXCOORD_0": 22
          },
          "indices": 23,
          "material": 0,
          "mode": 4
        }
      ]
    }
  ],
  "nodes": [
    {
      "children": [
        1
      ],
      "name": "RootNode (gltf orientation matrix)",
      "rotation": [
        -0.70710678118654746,
        -0,
        -0,
        0.70710678118654757
      ]
    },
    {
      "children": [
        2
      ],
      "name": "RootNode (model correction matrix)"
    },
    {
      "children": [
        3
      ],
      "matrix": [
        1,
        0,
        0,
        0,
        0,
        0,
        1,
        0,
        0,
        -1,
        0,
        0,
        0,
        0,
        0,
        1
      ],
      "name": "Porygon(Withanim).fbx"
    },
    {
      "children": [
        4
      ],
      "name": ""
    },
    {
      "children": [
        5,
        7,
        9,
        11,
        13,
        15
      ],
      "name": "RootNode"
    },
    {
      "children": [
        6
      ],
      "name": "pCube1",
      "translation": [
        0,
        0.59598433971405029,
        0
      ]
    },
    {
      "mesh": 0,
      "name": "pCube1_Porygon_0"
    },
    {
      "children": [
        8
      ],
      "name": "pCube2",
      "rotation": [
        0,
        -0,
        -0.28401535749435425,
        0.95881974697113037
      ],
      "scale": [
        0.71101057529449463,
        0.87190568447113037,
        0.83489662408828735
      ],
      "translation": [
        0,
        0.51938629150390625,
        -1.7826581001281738
      ]
    },
    {
      "mesh": 1,
      "name": "pCube2_Porygon_0"
    },
    {
      "children": [
        10
      ],
      "name": "polySurface1",
      "rotation": [
        -0.28401535749435425,
        -0,
        0,
        0.95881974697113037
      ],
      "scale": [
        1,
        0.44998088479042053,
        1.7097206115722656
      ],
      "translation": [
        -1.1744760274887085,
        0.35566291213035583,
        -0.44367656111717224
      ]
    },
    {
      "mesh": 2,
      "name": "polySurface1_Porygon_0"
    },
    {
      "children": [
        12
      ],
      "name": "polySurface2",
      "rotation": [
        0.28401535749435425,
        0,
        0,
        0.95881974697113037
      ],
      "scale": [
        1,
        0.44998088479042053,
        1.7097206115722656
      ],
      "translation": [
        -1.1744760274887085,
        0.35566291213035583,
        -0.44367656111717224
      ]
    },
    {
      "mesh": 3,
      "name": "polySurface2_Porygon_0"
    },
    {
      "children": [
        14
      ],
      "name": "pCube4",
      "rotation": [
        0.34238505363464355,
        0,
        0,
        0.9395596981048584
      ],
      "translation": [
        0,
        1.4871442317962646,
        0.7498323917388916
      ]
    },
    {
      "mesh": 4,
      "name": "pCube4_Porygon_0"
    },
    {
      "children": [
        16
      ],
      "name": "pCube5",
      "rotation": [
        0.55403393507003784,
        0,
        0,
        0.83249408006668091
      ],
      "scale": [
        0.074178151786327362,
        0.074178151786327362,
        0.074178151786327362
      ],
      "translation": [
        0,
        1.8725367784500122,
        0.29596632719039917
      ]
    },
    {
      "mesh": 5,
      "name": "pCube5_Porygon_0"
    }
  ],
  "samplers": [
    {
      "magFilter": 9729,
      "minFilter": 9987,
      "wrapS": 10497,
      "wrapT": 10497
    }
  ],
  "scene": 0,
  "scenes": [
    {
      "name": "OSG_Scene",
      "nodes": [
        0
      ]
    }
  ],
  "textures": [
    {
      "sampler": 0,
      "source": 0
    },
    {
      "sampler": 0,
      "source": 1
    }
  ]
}

